<?xml version="1.0" standalone="no"?>
<!DOCTYPE svg PUBLIC "-//W3C//DTD SVG 20010904//EN"
 "http://www.w3.org/TR/2001/REC-SVG-20010904/DTD/svg10.dtd">
<svg version="1.0" xmlns="http://www.w3.org/2000/svg"
 width="1200.000000pt" height="1200.000000pt" viewBox="0 0 1200.000000 1200.000000"
 preserveAspectRatio="xMidYMid meet">
<metadata>
Created by potrace 1.16, written by Peter Selinger 2001-2019
</metadata>
<g transform="translate(0.000000,1200.000000) scale(0.100000,-0.100000)"
fill="#000000" stroke="none">
<path d="M0 6000 l0 -6000 6000 0 6000 0 0 6000 0 6000 -6000 0 -6000 0 0
-6000z m6395 2900 c848 -118 1585 -585 2062 -1306 71 -108 213 -369 213 -393
0 -7 -24 -11 -72 -11 l-73 1 -64 119 c-411 773 -1174 1313 -2041 1444 -550 84
-1082 9 -1601 -224 -357 -161 -706 -426 -966 -735 -106 -126 -255 -347 -330
-490 l-58 -110 -72 -3 c-61 -2 -73 0 -73 13 0 8 27 66 59 129 356 686 961
1203 1691 1446 207 69 451 118 693 140 156 14 459 4 632 -20z m-105 -311 c778
-88 1467 -505 1897 -1149 67 -101 143 -230 143 -243 0 -4 -22 -7 -49 -7 l-48
0 -59 97 c-196 324 -497 630 -815 831 -797 502 -1801 523 -2619 54 -357 -204
-681 -522 -899 -879 l-63 -103 -49 0 c-27 0 -49 3 -49 7 0 10 70 133 125 218
169 262 462 561 719 734 391 264 852 422 1306 450 138 9 330 5 460 -10z m-256
-518 l45 -89 88 -12 c48 -7 92 -15 97 -18 6 -3 -23 -35 -62 -71 l-72 -66 15
-78 c25 -129 28 -125 -72 -73 l-87 45 -84 -45 c-46 -25 -85 -44 -87 -42 -1 1
4 45 13 96 l15 93 -66 67 c-37 37 -67 70 -67 73 0 3 42 11 93 18 l94 13 44 89
c23 49 44 89 46 89 2 0 23 -40 47 -89z m-960 -390 c32 -64 45 -81 65 -85 14
-3 59 -10 100 -17 l73 -11 -70 -72 -70 -71 15 -88 c8 -49 13 -90 10 -93 -2 -3
-43 14 -89 37 l-85 42 -88 -48 c-83 -45 -88 -46 -82 -24 3 13 11 60 18 103
l12 79 -67 65 c-37 35 -65 67 -62 69 2 2 35 8 72 14 118 17 111 12 156 104 23
46 44 82 47 80 4 -2 24 -39 45 -84z m1920 0 c32 -64 45 -81 65 -85 14 -3 59
-10 100 -17 l73 -11 -70 -72 -70 -71 15 -88 c8 -49 13 -90 10 -93 -2 -3 -43
14 -89 37 l-85 42 -88 -48 c-83 -45 -88 -46 -82 -24 3 13 11 60 18 103 l12 79
-67 65 c-37 35 -65 67 -62 69 2 2 35 8 72 14 118 17 111 12 156 104 23 46 44
82 47 80 4 -2 24 -39 45 -84z m2606 -1621 l0 -900 -3600 0 -3600 0 0 900 0
900 3600 0 3600 0 0 -900z m-7390 -560 l0 -530 540 0 540 0 0 -280 0 -280
-1246 0 c-690 0 -1244 4 -1242 9 4 11 164 178 495 518 l262 270 -377 390
c-207 214 -386 399 -396 411 l-19 22 721 0 722 0 0 -530z m9004 508 c-10 -12
-189 -197 -396 -411 l-377 -390 258 -266 c378 -389 501 -518 501 -525 0 -3
-560 -6 -1245 -6 l-1245 0 0 280 0 280 540 0 540 0 0 530 0 530 722 0 721 0
-19 -22z m-6251 -1319 c46 -24 67 -52 67 -90 0 -45 -18 -62 -57 -53 -44 10
-55 24 -51 63 3 32 0 36 -24 39 -34 4 -58 -29 -58 -81 0 -51 13 -73 51 -86 41
-14 35 -39 -16 -57 -55 -18 -85 -55 -85 -104 0 -70 74 -93 145 -44 29 20 43
23 59 16 20 -8 19 -10 -14 -41 -74 -69 -155 -87 -233 -53 -58 26 -81 67 -74
130 6 56 31 90 88 119 24 12 38 23 31 23 -7 0 -24 11 -37 25 -20 19 -25 34
-25 72 0 57 17 86 68 113 42 22 131 27 165 9z m321 1 c36 -13 59 -53 51 -88
-3 -16 -24 -47 -45 -69 l-40 -40 35 -64 c44 -82 47 -134 8 -180 -69 -81 -193
-91 -257 -20 -18 20 -18 21 4 55 48 69 73 68 111 -6 22 -42 43 -49 59 -17 16
28 3 61 -67 171 -46 73 -57 99 -60 141 -4 58 4 73 57 106 37 22 101 28 144 11z
m461 -25 l0 -30 -61 3 -61 3 -32 -148 c-18 -82 -35 -179 -38 -218 -3 -38 -11
-73 -17 -77 -6 -4 -35 -8 -63 -8 l-52 0 5 33 c4 17 22 105 40 195 19 89 34
178 34 197 0 39 -7 41 -75 25 -44 -10 -55 -2 -55 38 l0 24 188 -4 187 -3 0
-30z m385 20 c41 -21 60 -53 60 -103 0 -61 -38 -129 -120 -214 -38 -40 -70
-74 -70 -74 0 -1 29 -7 64 -13 68 -12 91 -8 100 15 3 8 13 14 21 14 13 0 15
-6 10 -32 -23 -105 -67 -121 -179 -66 l-64 31 -32 -26 c-40 -34 -53 -34 -79
-1 -27 34 -26 40 4 69 17 18 35 25 64 25 37 0 44 4 80 53 85 113 112 206 72
246 -11 11 -30 21 -41 21 -29 0 -77 -27 -90 -49 -13 -25 -50 -17 -43 9 6 23
59 74 98 94 38 20 107 20 145 1z m431 -22 c60 -68 62 -213 4 -342 -45 -99
-121 -150 -207 -138 -80 11 -118 74 -118 195 0 200 93 327 234 319 51 -3 63
-8 87 -34z m339 22 c41 -21 60 -53 60 -103 0 -61 -38 -129 -120 -214 -38 -40
-70 -74 -70 -74 0 -1 29 -7 64 -13 68 -12 91 -8 100 15 3 8 13 14 21 14 13 0
15 -6 10 -32 -23 -105 -67 -121 -179 -66 l-64 31 -32 -26 c-40 -34 -53 -34
-79 -1 -27 34 -26 40 4 69 17 18 35 25 64 25 37 0 44 4 80 53 85 113 112 206
72 246 -11 11 -30 21 -41 21 -29 0 -77 -27 -90 -49 -13 -25 -50 -17 -43 9 6
23 59 74 98 94 38 20 107 20 145 1z m431 -22 c60 -68 62 -213 4 -342 -45 -99
-121 -150 -207 -138 -80 11 -118 74 -118 195 0 200 93 327 234 319 51 -3 63
-8 87 -34z m265 -759 c33 -26 34 -27 17 -46 -36 -40 -191 -158 -313 -237 -513
-336 -1149 -477 -1773 -396 -315 42 -662 157 -928 307 -104 60 -229 140 -229
148 0 3 13 21 29 40 l29 34 33 -25 c105 -79 320 -190 515 -267 422 -166 968
-209 1423 -111 391 85 777 268 1076 513 44 36 81 65 83 66 2 0 19 -12 38 -26z
m211 -246 l56 -42 -49 -45 c-209 -189 -570 -405 -864 -518 -909 -347 -1946
-227 -2722 317 l-67 47 41 56 40 55 112 -73 c360 -237 765 -385 1206 -441 132
-16 472 -19 605 -4 574 64 1108 288 1515 633 36 31 66 56 68 56 2 1 28 -18 59
-41z"/>
<path d="M4566 6458 c-3 -13 -8 -75 -11 -139 l-6 -117 27 -6 c18 -5 30 -3 35
6 12 18 69 178 76 209 8 39 -26 69 -77 69 -33 0 -40 -4 -44 -22z"/>
<path d="M4111 6449 c-24 -5 -46 -10 -48 -13 -3 -2 1 -21 8 -41 17 -45 8 -70
-110 -330 -131 -285 -129 -277 -72 -290 55 -12 64 -2 99 104 19 57 39 102 48
105 9 3 46 6 84 6 l68 0 3 -86 c4 -81 6 -87 33 -111 27 -23 36 -25 87 -20 32
3 83 16 113 30 51 24 55 28 47 49 -6 17 -16 23 -39 23 -55 0 -56 5 -64 269 -5
182 -10 253 -22 280 l-15 36 -88 -1 c-48 -1 -108 -5 -132 -10z m82 -151 c3
-35 4 -76 2 -93 -2 -16 -3 -54 -4 -82 l-1 -53 -66 0 c-49 0 -65 3 -61 13 3 6
29 72 58 145 29 72 56 132 59 132 4 0 10 -28 13 -62z"/>
<path d="M5435 6449 c-81 -11 -96 -21 -71 -47 34 -39 36 -75 10 -199 -66 -309
-84 -399 -84 -410 0 -15 101 -17 135 -4 11 5 43 2 75 -7 117 -30 246 3 299 77
61 86 46 200 -33 246 -24 14 -51 25 -62 25 -11 0 7 15 41 34 72 40 99 80 99
148 0 58 -23 93 -79 122 -31 16 -61 20 -149 22 -61 2 -142 -2 -181 -7z m230
-98 c14 -64 -37 -160 -92 -176 -28 -8 -28 -6 -3 115 11 52 20 96 20 97 0 1 8
3 18 6 27 6 50 -10 57 -42z m-64 -251 c5 0 18 -9 29 -20 15 -15 20 -33 20 -75
0 -96 -46 -155 -118 -155 -52 0 -54 8 -32 116 11 54 23 107 26 116 5 18 30 28
52 22 8 -2 18 -4 23 -4z"/>
<path d="M4825 6186 c-48 -22 -70 -53 -70 -100 0 -42 5 -51 101 -179 21 -27
34 -54 30 -62 -9 -25 -23 -17 -50 30 -41 70 -59 74 -107 27 -44 -44 -48 -61
-20 -86 55 -50 170 -60 247 -21 82 41 105 109 62 184 l-21 37 22 31 c31 41 32
97 3 126 -18 18 -36 22 -95 24 -46 2 -83 -2 -102 -11z"/>
<path d="M5981 6189 c-35 -4 -65 -10 -68 -12 -2 -3 5 -20 16 -38 19 -34 19
-34 -5 -129 -25 -99 -31 -162 -20 -197 15 -47 115 -55 192 -15 36 19 36 19 60
-5 29 -29 75 -30 146 -3 75 28 82 34 75 62 -6 21 -11 24 -37 20 -16 -2 -30 0
-30 6 0 5 11 69 25 142 34 183 35 180 -17 179 -24 0 -61 -3 -83 -7 -37 -7 -40
-10 -47 -52 -5 -25 -18 -93 -30 -153 -19 -97 -24 -108 -45 -113 -46 -12 -49 8
-20 125 15 59 27 129 27 154 l0 47 -37 -1 c-21 -1 -67 -5 -102 -10z"/>
<path d="M6513 6190 c-40 -4 -75 -9 -79 -12 -3 -4 1 -17 10 -30 21 -30 20 -75
-4 -193 -11 -53 -20 -115 -20 -136 l0 -39 73 0 c39 0 77 4 83 8 6 4 14 32 18
62 4 30 14 93 23 138 18 92 34 110 65 72 16 -20 21 -21 47 -10 67 27 89 79 55
128 -21 30 -68 29 -110 -3 -40 -31 -42 -31 -46 -2 -3 25 -8 25 -115 17z"/>
<path d="M6914 6186 c-100 -45 -156 -223 -104 -331 31 -64 98 -83 177 -50 41
17 48 15 38 -14 -4 -13 -21 -24 -48 -32 -59 -16 -115 -46 -127 -68 -12 -23
-13 -71 -2 -87 23 -34 115 -45 175 -21 38 17 98 81 126 136 12 22 30 72 41
113 19 72 50 280 50 340 l0 31 -72 -7 c-40 -4 -80 -7 -88 -7 -8 1 -42 4 -75 6
-39 3 -71 0 -91 -9z m141 -138 c-13 -153 -16 -163 -50 -163 -29 0 -30 1 -33
55 -7 111 22 190 70 190 19 0 20 -4 13 -82z"/>
<path d="M7422 6187 c-48 -18 -99 -63 -124 -110 -32 -59 -33 -192 -2 -233 66
-89 188 -98 307 -22 49 31 57 47 33 67 -11 10 -21 9 -43 -2 -58 -30 -90 -31
-118 -3 -14 14 -25 29 -25 34 0 5 24 14 53 21 118 27 177 77 177 151 0 72 -58
110 -162 109 -34 0 -78 -6 -96 -12z"/>
<path d="M7803 6190 c-40 -4 -75 -9 -79 -12 -3 -4 1 -17 10 -30 21 -30 20 -75
-4 -193 -11 -53 -20 -116 -20 -139 l0 -41 62 3 c105 4 104 4 112 69 3 32 14
96 23 141 18 92 34 110 65 72 16 -20 21 -21 47 -10 67 27 89 79 55 128 -21 30
-68 29 -110 -3 -40 -31 -42 -31 -46 -2 -3 25 -8 25 -115 17z"/>
<path d="M6417 4632 c-52 -57 -90 -336 -53 -387 19 -27 57 -8 80 39 40 85 63
325 34 354 -17 17 -42 15 -61 -6z"/>
<path d="M7187 4632 c-52 -57 -90 -336 -53 -387 19 -27 57 -8 80 39 40 85 63
325 34 354 -17 17 -42 15 -61 -6z"/>
</g>
</svg>
